<svg width="1092.000000pt" height="841.000000pt" viewBox="0 0 1092.000000 841.000000" xmlns="http://www.w3.org/2000/svg">
    <g transform="translate(0.000000,841.000000) scale(0.100000,-0.100000)" fill="#fefefe" stroke="none">
        <path d="M0 4205 c0 -4205 0 -4205 5460 -4205 5460 0 5460 0 5460 4205 0 4205
0 4205 -5460 4205 -5460 0 -5460 0 -5460 -4205z m2715 2296 c436 -77 910 -312
1129 -559 24 -28 67 -28 92 -1 10 12 64 58 119 102 836 673 2005 647 2804 -63
85 -76 97 -76 177 -1 228 214 548 390 859 472 1494 396 2876 -774 2728 -2310
-11 -113 174 -101 -1537 -101 -1659 0 -1523 6 -1514 -68 26 -193 249 -530 442
-666 395 -281 856 -219 1217 163 96 101 96 101 654 99 660 -3 602 12 526 -142
-634 -1276 -2295 -1591 -3365 -639 -88 78 -92 78 -185 -4 -842 -738 -2045
-739 -2880 -4 -98 87 -104 87 -191 6 -1045 -958 -2727 -632 -3369 653 -70 141
-127 127 527 130 564 2 564 2 670 -109 394 -411 918 -437 1310 -65 197 187
403 593 323 636 -13 7 -500 10 -1505 10 -1706 0 -1519 -13 -1531 104 -128
1193 713 2226 1935 2380 95 12 449 -3 565 -23z" />
        <path d="M2161 5619 c-379 -47 -697 -290 -853 -652 -58 -133 -66 -171 -43
-197 25 -28 1951 -32 1979 -4 22 22 20 51 -10 130 -188 501 -605 782 -1073
723z" />
        <path d="M8422 5619 c-358 -46 -686 -340 -823 -738 -25 -70 -24 -107 0 -121
13 -7 340 -10 990 -10 1129 0 1026 -13 976 128 -178 505 -642 806 -1143 741z" />
        <path d="M5280 5449 c-293 -31 -520 -222 -575 -484 -33 -156 -24 -165 158
-165 156 0 161 2 177 82 73 363 644 322 668 -48 13 -203 -49 -290 -568 -796
-491 -478 -450 -430 -450 -527 0 -123 -78 -111 730 -111 824 0 730 -21 730
165 0 184 49 165 -433 166 -402 0 -402 0 -257 136 191 180 328 320 403 412
473 579 140 1248 -583 1170z" />
    </g>
    <g transform="translate(0.000000,841.000000) scale(0.100000,-0.100000)" fill="#e62a1f" stroke="none">
        <path d="M2140 6534 c-974 -122 -1706 -782 -1906 -1717 -28 -131 -45 -533 -29
-683 12 -117 -175 -104 1533 -104 1721 0 1540 14 1498 -117 -255 -791 -1062
-1014 -1608 -444 -106 111 -106 111 -680 109 -687 -4 -650 23 -446 -317 695
-1155 2309 -1393 3298 -486 86 79 74 80 171 -6 837 -737 2056 -736 2900 4 92
81 79 81 165 4 1070 -953 2733 -644 3379 628 97 191 145 175 -534 175 -564 0
-564 0 -660 -101 -359 -380 -806 -441 -1197 -163 -187 132 -401 450 -440 652
-13 67 -136 62 1512 62 1711 0 1526 -12 1537 101 93 938 -366 1778 -1195 2189
-786 389 -1790 251 -2412 -331 -78 -72 -74 -72 -157 1 -801 712 -1986 738
-2824 63 -55 -44 -109 -90 -119 -102 -24 -27 -48 -27 -72 1 -168 190 -583 424
-898 508 -236 63 -623 98 -816 74z m369 -945 c310 -79 580 -344 715 -703 53
-140 157 -126 -968 -126 -1118 0 -1017 -11 -976 102 197 547 721 856 1229 727z
m6136 21 c426 -45 757 -314 908 -736 45 -127 153 -114 -967 -114 -1088 0
-1010 -6 -988 77 128 479 591 821 1047 773z m-3050 -191 c436 -104 610 -571
366 -977 -87 -145 -223 -295 -508 -561 -79 -73 -143 -139 -143 -147 0 -12 62
-14 399 -14 478 0 431 17 431 -155 0 -174 90 -155 -720 -155 -792 0 -720 -10
-720 101 0 85 -36 44 450 517 524 511 580 590 568 806 -21 381 -613 431 -688
58 -16 -79 -22 -82 -167 -82 -153 0 -169 9 -158 93 54 392 449 622 890 516z" />
    </g>
</svg>